<svg width="110" height="110" viewBox="0 0 110 110" fill="none" xmlns="http://www.w3.org/2000/svg">
<g filter="url(#filter0_d_9_788)">
<circle cx="55" cy="51" r="51" fill="#FBB040"/>
<g filter="url(#filter1_d_9_788)">
<circle cx="55" cy="51" r="43.5928" stroke="white" stroke-opacity="0.7" stroke-width="2"/>
</g>
<path d="M76.6603 40.8473C76.6603 42.1058 76.1667 43.3209 75.2693 44.1888L54.4038 64.4114C53.4615 65.2793 52.2051 65.8001 50.9038 65.8001C49.6026 65.8001 48.3461 65.2793 47.4487 64.4114L36.9936 54.3001C36.0961 53.4322 35.6025 52.2171 35.6025 50.9586C35.6025 49.7001 36.141 48.5284 37.0384 47.6171C37.9807 46.7492 39.1923 46.2718 40.4936 46.2284C41.7949 46.2284 43.0064 46.7058 43.9487 47.5737L50.9038 54.3001L68.3141 37.4624C69.2564 36.5945 70.468 36.1171 71.7692 36.1171C73.0705 36.1605 74.2821 36.6379 75.2244 37.5492C76.1218 38.4171 76.6603 39.5888 76.6603 40.8473Z" fill="white"/>
</g>
<defs>
<filter id="filter0_d_9_788" x="0" y="0" width="110" height="110" filterUnits="userSpaceOnUse" color-interpolation-filters="sRGB">
<feFlood flood-opacity="0" result="BackgroundImageFix"/>
<feColorMatrix in="SourceAlpha" type="matrix" values="0 0 0 0 0 0 0 0 0 0 0 0 0 0 0 0 0 0 127 0" result="hardAlpha"/>
<feOffset dy="4"/>
<feGaussianBlur stdDeviation="2"/>
<feComposite in2="hardAlpha" operator="out"/>
<feColorMatrix type="matrix" values="0 0 0 0 0 0 0 0 0 0 0 0 0 0 0 0 0 0 0.25 0"/>
<feBlend mode="normal" in2="BackgroundImageFix" result="effect1_dropShadow_9_788"/>
<feBlend mode="normal" in="SourceGraphic" in2="effect1_dropShadow_9_788" result="shape"/>
</filter>
<filter id="filter1_d_9_788" x="6.40723" y="5.40723" width="97.1855" height="97.1855" filterUnits="userSpaceOnUse" color-interpolation-filters="sRGB">
<feFlood flood-opacity="0" result="BackgroundImageFix"/>
<feColorMatrix in="SourceAlpha" type="matrix" values="0 0 0 0 0 0 0 0 0 0 0 0 0 0 0 0 0 0 127 0" result="hardAlpha"/>
<feOffset dy="3"/>
<feGaussianBlur stdDeviation="2"/>
<feColorMatrix type="matrix" values="0 0 0 0 0 0 0 0 0 0 0 0 0 0 0 0 0 0 0.12 0"/>
<feBlend mode="normal" in2="BackgroundImageFix" result="effect1_dropShadow_9_788"/>
<feBlend mode="normal" in="SourceGraphic" in2="effect1_dropShadow_9_788" result="shape"/>
</filter>
</defs>
</svg>
