<svg width="94" height="94" viewBox="0 0 94 94" fill="none" xmlns="http://www.w3.org/2000/svg">
<path d="M80.2509 80.2509C98.583 61.9188 98.583 32.0812 80.2509 13.7491C61.9188 -4.58303 32.0812 -4.58303 13.7491 13.7491C-4.58303 32.0812 -4.58303 61.9188 13.7491 80.2509C32.0812 98.583 61.9188 98.583 80.2509 80.2509ZM17.0665 17.0665C33.5769 0.5561 60.4231 0.5561 76.9335 17.0665C93.4439 33.5769 93.4439 60.4231 76.9335 76.9335C60.4231 93.4439 33.5769 93.4439 17.0665 76.9335C0.5561 60.4231 0.575275 33.5769 17.0665 17.0665Z" fill="#FBB040"/>
<path d="M46.9993 64.6035C47.6513 64.6035 48.2265 64.3351 48.6676 63.9132C49.0895 63.4913 49.3579 62.8969 49.3579 62.2449V49.3396H62.2633C62.9152 49.3396 63.4905 49.0711 63.9316 48.6492C64.3534 48.2274 64.6219 47.6329 64.6219 46.9809C64.6219 45.677 63.5672 44.6223 62.2824 44.6415H49.3771V31.7361C49.3771 30.4322 48.3224 29.3775 47.0376 29.3967C45.7337 29.3967 44.679 30.4514 44.6982 31.7361V44.6415H31.7928C30.4889 44.6415 29.4342 45.6962 29.4534 46.9809C29.4534 48.2849 30.5081 49.3396 31.7928 49.3204H44.6982V62.2257C44.6407 63.5489 45.6953 64.6035 46.9993 64.6035Z" fill="#FBB040"/>
</svg>
